<svg width="192" height="164" viewBox="0 0 192 164" fill="none" xmlns="http://www.w3.org/2000/svg">
<path d="M0 6C0 2.6863 2.68629 0 6 0H185.344C188.657 0 191.344 2.68629 191.344 6V158C191.344 161.314 188.657 164 185.344 164H6C2.68629 164 0 161.314 0 158V6Z" fill="white"/>
<rect x="30.0625" y="7" width="152.344" height="10.8906" rx="5.44531" fill="#ECECEC"/>
<rect x="7" y="10" width="5" height="5" rx="2.5" fill="#212125"/>
<rect x="14" y="10" width="5" height="5" rx="2.5" fill="#A3DE83"/>
<rect x="21" y="10" width="5" height="5" rx="2.5" fill="#F7F39A"/>
<path d="M35.7549 12.7299V14H35.2436V11.1082H35.7429V12.1986H35.7709C35.8687 11.953 36.0804 11.8032 36.4139 11.8032C36.8633 11.8032 37.1608 12.0948 37.1608 12.618V14H36.6536V12.6979C36.6516 12.4023 36.4938 12.2326 36.2262 12.2346C35.9506 12.2326 35.7549 12.4143 35.7549 12.7299ZM38.7265 11.8312V12.2226H38.2992V13.349C38.2992 13.5567 38.403 13.5986 38.5308 13.6006C38.5907 13.6026 38.6906 13.5966 38.7545 13.5926V14.008C38.6946 14.018 38.5967 14.03 38.4669 14.028C38.0835 14.03 37.7879 13.8402 37.7919 13.4328V12.2226H37.4804V11.8312H37.7919V11.3119H38.2992V11.8312H38.7265ZM40.2004 11.8312V12.2226H39.773V13.349C39.773 13.5567 39.8768 13.5986 40.0047 13.6006C40.0646 13.6026 40.1644 13.5966 40.2283 13.5926V14.008C40.1684 14.018 40.0706 14.03 39.9408 14.028C39.5573 14.03 39.2617 13.8402 39.2657 13.4328V12.2226H38.9542V11.8312H39.2657V11.3119H39.773V11.8312H40.2004ZM40.5918 14.8148V11.8312H41.0911V12.1867H41.123C41.2009 12.0329 41.3607 11.8032 41.7461 11.8032C42.2454 11.8032 42.6388 12.1946 42.6408 12.9176C42.6388 13.6305 42.2574 14.0379 41.7461 14.0399C41.3727 14.0379 41.2029 13.8163 41.123 13.6565H41.103V14.8148H40.5918ZM41.0911 12.9136C41.0931 13.337 41.2768 13.6206 41.6063 13.6206C41.9438 13.6206 42.1216 13.323 42.1216 12.9136C42.1216 12.5102 41.9478 12.2206 41.6063 12.2186C41.2728 12.2206 41.0931 12.4922 41.0911 12.9136ZM43.3557 14.032C43.184 14.032 43.0422 13.8922 43.0442 13.7204C43.0422 13.5527 43.184 13.4149 43.3557 13.4129C43.5215 13.4149 43.6633 13.5527 43.6633 13.7204C43.6633 13.8922 43.5215 14.032 43.3557 14.032ZM43.0442 12.1707C43.0422 12.0029 43.184 11.8651 43.3557 11.8631C43.5215 11.8651 43.6633 12.0029 43.6633 12.1707C43.6633 12.3424 43.5215 12.4822 43.3557 12.4822C43.184 12.4822 43.0422 12.3424 43.0442 12.1707ZM45.3328 10.9724L44.4022 14.4354H43.9549L44.8895 10.9724H45.3328ZM46.7987 10.9724L45.8681 14.4354H45.4207L46.3553 10.9724H46.7987ZM48.1327 14.0399C47.5156 14.0399 47.0743 13.7044 47.0623 13.2171H47.5855C47.5995 13.4488 47.8312 13.6026 48.1327 13.6006C48.4503 13.6026 48.6799 13.4268 48.6799 13.1692C48.6799 12.9096 48.4563 12.7239 48.0808 12.7219H47.8212V12.3225H48.0808C48.3884 12.3225 48.602 12.1507 48.6 11.8991C48.602 11.6554 48.4183 11.4917 48.1367 11.4917C47.8651 11.4917 47.6315 11.6435 47.6215 11.8871H47.1222C47.1342 11.4018 47.5756 11.0683 48.1407 11.0683C48.7279 11.0683 49.1073 11.4278 49.1033 11.8711C49.1073 12.1946 48.8916 12.4283 48.5761 12.4942V12.5182C48.9835 12.5721 49.2151 12.8337 49.2112 13.1972C49.2151 13.6865 48.7578 14.0399 48.1327 14.0399ZM49.8981 14.032C49.7264 14.032 49.5846 13.8922 49.5866 13.7204C49.5846 13.5527 49.7264 13.4149 49.8981 13.4129C50.0639 13.4149 50.2057 13.5527 50.2057 13.7204C50.2057 13.8922 50.0639 14.032 49.8981 14.032ZM51.6476 14.0399C51.0305 14.0399 50.5891 13.7044 50.5771 13.2171H51.1004C51.1144 13.4488 51.346 13.6026 51.6476 13.6006C51.9651 13.6026 52.1948 13.4268 52.1948 13.1692C52.1948 12.9096 51.9711 12.7239 51.5957 12.7219H51.336V12.3225H51.5957C51.9032 12.3225 52.1169 12.1507 52.1149 11.8991C52.1169 11.6554 51.9332 11.4917 51.6516 11.4917C51.38 11.4917 51.1463 11.6435 51.1363 11.8871H50.6371C50.649 11.4018 51.0904 11.0683 51.6556 11.0683C52.2427 11.0683 52.6221 11.4278 52.6182 11.8711C52.6221 12.1946 52.4065 12.4283 52.0909 12.4942V12.5182C52.4983 12.5721 52.73 12.8337 52.726 13.1972C52.73 13.6865 52.2727 14.0399 51.6476 14.0399ZM53.1294 13.4608V13.0454L54.3796 11.1082H55.0266V13.0334H55.4061V13.4608H55.0266V14H54.5313V13.4608H53.1294ZM53.6606 13.0334H54.5393V11.6994H54.5074L53.6606 13.0134V13.0334ZM56.0571 14.032C55.8854 14.032 55.7436 13.8922 55.7456 13.7204C55.7436 13.5527 55.8854 13.4149 56.0571 13.4129C56.2229 13.4149 56.3647 13.5527 56.3647 13.7204C56.3647 13.8922 56.2229 14.032 56.0571 14.032ZM57.6707 11.1082V14H57.1475V11.6155H57.1315L56.4565 12.0469V11.5716L57.1715 11.1082H57.6707ZM59.548 11.1082V14H59.0248V11.6155H59.0088L58.3338 12.0469V11.5716L59.0487 11.1082H59.548ZM60.3588 14L61.613 11.5636V11.5436H60.1591V11.1082H62.1522V11.5516L60.898 14H60.3588ZM62.3918 14.032C62.2201 14.032 62.0783 13.8922 62.0803 13.7204C62.0783 13.5527 62.2201 13.4149 62.3918 13.4129C62.5576 13.4149 62.6994 13.5527 62.6994 13.7204C62.6994 13.8922 62.5576 14.032 62.3918 14.032ZM64.0054 11.1082V14H63.4822V11.6155H63.4662L62.7912 12.0469V11.5716L63.5062 11.1082H64.0054ZM65.7749 14.0399C65.0779 14.0399 64.6625 13.5007 64.6645 12.5541C64.6625 11.6115 65.0819 11.0683 65.7749 11.0683C66.4678 11.0683 66.8852 11.6115 66.8852 12.5541C66.8852 13.5027 66.4698 14.0399 65.7749 14.0399ZM65.1877 12.5541C65.1877 13.2491 65.4114 13.6026 65.7749 13.6046C66.1363 13.6026 66.362 13.2491 66.362 12.5541C66.36 11.8651 66.1363 11.5017 65.7749 11.4997C65.4134 11.5017 65.1897 11.8651 65.1877 12.5541ZM68.5029 10.9724L67.5722 14.4354H67.1249L68.0595 10.9724H68.5029ZM69.737 14.8587C69.1619 14.8587 68.7964 14.6031 68.7625 14.1957H69.2697C69.3057 14.3854 69.4834 14.4733 69.745 14.4753C70.0506 14.4733 70.2483 14.3415 70.2483 14.024V13.6086H70.2243C70.1444 13.7683 69.9707 13.968 69.5972 13.968C69.096 13.968 68.7026 13.6046 68.7026 12.8976C68.7026 12.1847 69.098 11.8032 69.6012 11.8032C69.9827 11.8032 70.1444 12.0329 70.2243 12.1867H70.2483V11.8312H70.7516V14.0359C70.7516 14.5911 70.3222 14.8587 69.737 14.8587ZM69.2218 12.9056C69.2218 13.305 69.4015 13.5686 69.737 13.5686C70.0666 13.5686 70.2523 13.321 70.2523 12.9056C70.2523 12.4922 70.0686 12.2206 69.737 12.2186C69.3975 12.2206 69.2218 12.5102 69.2218 12.9056ZM71.2388 14V11.8312H71.7501V14H71.2388ZM71.2029 11.244C71.2029 11.0923 71.3367 10.9684 71.4985 10.9684C71.6602 10.9684 71.794 11.0923 71.794 11.244C71.794 11.3978 71.6602 11.5216 71.4985 11.5236C71.3367 11.5216 71.2029 11.3978 71.2029 11.244ZM72.6887 14L72.0736 11.8312H72.5929L72.9763 13.3569H72.9963L73.3837 11.8312H73.8989L74.2904 13.349H74.3103L74.6898 11.8312H75.209L74.5939 14H74.0627L73.6553 12.5302H73.6273L73.2199 14H72.6887ZM76.4192 14.0439C75.7862 14.0439 75.3808 13.5946 75.3808 12.9256C75.3808 12.2506 75.7862 11.8032 76.4192 11.8032C77.0543 11.8032 77.4597 12.2506 77.4577 12.9256C77.4597 13.5946 77.0543 14.0439 76.4192 14.0439ZM75.896 12.9216C75.896 13.319 76.0698 13.6365 76.4232 13.6365C76.7707 13.6365 76.9445 13.319 76.9425 12.9216C76.9445 12.5242 76.7707 12.2046 76.4232 12.2066C76.0698 12.2046 75.896 12.5242 75.896 12.9216ZM78.3644 12.7299V14H77.8531V11.8312H78.3404V12.1986H78.3684C78.4662 11.957 78.6879 11.8032 79.0114 11.8032C79.4608 11.8032 79.7563 12.0988 79.7543 12.618V14H79.2471V12.6979C79.2471 12.4063 79.0893 12.2326 78.8237 12.2346C78.5541 12.2326 78.3644 12.4143 78.3644 12.7299ZM81.4199 10.9724L80.4893 14.4354H80.0419L80.9766 10.9724H81.4199Z" fill="black"/>
</svg>
