<svg width="768" height="1200" viewBox="0 0 768 1200" fill="none" xmlns="http://www.w3.org/2000/svg">
<rect width="768" height="1200" fill="#F03223"/>
<path d="M288.064 576V505.297H296.854V536.742H334.256V505.297H343.143V576H334.256V544.457H296.854V576H288.064ZM380.643 576H358.67V505.297H381.521C402.176 505.297 414.334 518.529 414.334 540.551C414.334 562.621 402.176 576 380.643 576ZM367.459 568.188H380.057C397.391 568.188 405.74 557.689 405.74 540.551C405.74 523.461 397.391 513.109 380.936 513.109H367.459V568.188ZM475.467 527.562C473.416 517.797 465.066 512.523 455.74 512.523C442.947 512.523 433.035 522.387 432.986 540.648C433.035 558.861 442.947 568.725 455.74 568.773C465.066 568.725 473.367 563.5 475.467 553.832H484.256C481.717 568.285 470.096 576.977 455.74 576.977C437.576 576.977 424.441 563.012 424.49 540.648C424.441 518.285 437.576 504.32 455.74 504.32C470.047 504.32 481.619 512.865 484.256 527.562H475.467ZM200.711 616.191V682.402H192.996V663.75H177.957V657.5H192.996V645.684H177.957V639.336H192.996V616.191H200.711ZM128.836 633.086V626.836H149.93V616.094H157.547V626.836H177.957V633.086H128.836ZM134.012 654.473C133.914 644.512 142.02 637.871 153.641 637.871C165.262 637.871 173.416 644.512 173.465 654.473C173.416 664.336 165.262 671.025 153.641 671.074C142.02 671.025 133.914 664.336 134.012 654.473ZM141.141 654.473C141.092 660.723 146.219 664.971 153.641 664.922C161.062 664.971 166.189 660.723 166.238 654.473C166.189 648.223 161.062 644.023 153.641 643.926C146.219 644.023 141.092 648.223 141.141 654.473ZM144.559 701.055V676.543H152.273V694.609H202.664V701.055H144.559ZM289.383 616.094V702.91H282.059V657.402H269.266V698.418H262.234V618.047H269.266V651.055H282.059V616.094H289.383ZM218.387 681.426V626.738H250.906V633.086H226.004V674.883C237.967 674.834 246.219 674.395 255.887 672.441L256.57 678.887C246.121 681.035 237.283 681.377 223.953 681.426H218.387ZM330.789 632.5C330.74 644.463 339.773 655.498 352.566 659.941L348.66 666.094C338.797 662.48 331.131 655.156 327.273 645.977C323.611 656.328 315.75 664.287 305.496 668.242L301.297 662.09C314.529 657.451 323.221 645.684 323.27 632.207V621.465H330.789V632.5ZM315.262 701.055V674.102H323.074V694.609H373.465V701.055H315.262ZM361.844 680.254V616.094H369.461V642.754H382.547V649.297H369.461V680.254H361.844ZM411.941 620.195C423.562 620.146 432.449 626.934 434.109 636.895H452.273V616.094H459.988V662.676H452.273V643.242H434.158C432.645 653.496 423.709 660.332 411.941 660.332C398.709 660.332 389.334 652.129 389.383 640.215C389.334 628.447 398.709 620.146 411.941 620.195ZM396.707 640.215C396.707 648.125 403.006 653.838 411.941 653.887C420.682 653.838 426.98 648.125 426.98 640.215C426.98 632.207 420.682 626.641 411.941 626.738C403.006 626.641 396.707 632.207 396.707 640.215ZM404.031 701.738V667.07H411.746V678.105H452.273V667.07H459.988V701.738H404.031ZM411.746 695.488H452.273V684.258H411.746V695.488ZM548.562 616.094V702.91H541.043V657.5H529.031V698.613H521.707V618.438H529.031V651.152H541.043V616.094H548.562ZM474.539 678.887C494.705 667.607 503.006 651.738 504.324 633.77H477.859V627.422H511.844C511.746 649.492 503.982 670.342 479.031 684.258L474.539 678.887ZM572.098 619.805V632.305H597.391V619.805H605.008V657.598H564.578V619.805H572.098ZM572.098 651.348H597.391V638.262H572.098V651.348ZM573.367 671.27V665.117H628.738V686.113H581.082V695.684H631.961V701.934H573.562V680.254H621.121V671.27H573.367ZM621.121 661.016V616.094H628.738V634.941H641.824V641.387H628.738V661.016H621.121Z" fill="white"/>
</svg>
