<svg width="192" height="164" viewBox="0 0 192 164" fill="none" xmlns="http://www.w3.org/2000/svg">
<path d="M0 6C0 2.6863 2.68629 0 6 0H185.344C188.657 0 191.344 2.68629 191.344 6V158C191.344 161.314 188.657 164 185.344 164H6C2.68629 164 0 161.314 0 158V6Z" fill="white"/>
<rect x="30.0625" y="7" width="152.344" height="10.8906" rx="5.44531" fill="#ECECEC"/>
<rect x="7" y="10" width="5" height="5" rx="2.5" fill="#212125"/>
<rect x="14" y="10" width="5" height="5" rx="2.5" fill="#A3DE83"/>
<rect x="21" y="10" width="5" height="5" rx="2.5" fill="#F7F39A"/>
<path d="M35.7549 12.7299V14H35.2436V11.1082H35.7429V12.1986H35.7709C35.8687 11.953 36.0804 11.8032 36.4139 11.8032C36.8633 11.8032 37.1608 12.0948 37.1608 12.618V14H36.6536V12.6979C36.6516 12.4023 36.4938 12.2326 36.2262 12.2346C35.9506 12.2326 35.7549 12.4143 35.7549 12.7299ZM38.7265 11.8312V12.2226H38.2992V13.349C38.2992 13.5567 38.403 13.5986 38.5308 13.6006C38.5907 13.6026 38.6906 13.5966 38.7545 13.5926V14.008C38.6946 14.018 38.5967 14.03 38.4669 14.028C38.0835 14.03 37.7879 13.8402 37.7919 13.4328V12.2226H37.4804V11.8312H37.7919V11.3119H38.2992V11.8312H38.7265ZM40.2004 11.8312V12.2226H39.773V13.349C39.773 13.5567 39.8768 13.5986 40.0047 13.6006C40.0646 13.6026 40.1644 13.5966 40.2283 13.5926V14.008C40.1684 14.018 40.0706 14.03 39.9408 14.028C39.5573 14.03 39.2617 13.8402 39.2657 13.4328V12.2226H38.9542V11.8312H39.2657V11.3119H39.773V11.8312H40.2004ZM40.5918 14.8148V11.8312H41.0911V12.1867H41.123C41.2009 12.0329 41.3607 11.8032 41.7461 11.8032C42.2454 11.8032 42.6388 12.1946 42.6408 12.9176C42.6388 13.6305 42.2574 14.0379 41.7461 14.0399C41.3727 14.0379 41.2029 13.8163 41.123 13.6565H41.103V14.8148H40.5918ZM41.0911 12.9136C41.0931 13.337 41.2768 13.6206 41.6063 13.6206C41.9438 13.6206 42.1216 13.323 42.1216 12.9136C42.1216 12.5102 41.9478 12.2206 41.6063 12.2186C41.2728 12.2206 41.0931 12.4922 41.0911 12.9136ZM43.3557 14.032C43.184 14.032 43.0422 13.8922 43.0442 13.7204C43.0422 13.5527 43.184 13.4149 43.3557 13.4129C43.5215 13.4149 43.6633 13.5527 43.6633 13.7204C43.6633 13.8922 43.5215 14.032 43.3557 14.032ZM43.0442 12.1707C43.0422 12.0029 43.184 11.8651 43.3557 11.8631C43.5215 11.8651 43.6633 12.0029 43.6633 12.1707C43.6633 12.3424 43.5215 12.4822 43.3557 12.4822C43.184 12.4822 43.0422 12.3424 43.0442 12.1707ZM45.3328 10.9724L44.4022 14.4354H43.9549L44.8895 10.9724H45.3328ZM46.7987 10.9724L45.8681 14.4354H45.4207L46.3553 10.9724H46.7987ZM47.0583 14V13.6765L48.1767 12.2705V12.2506H47.0943V11.8312H48.7998V12.1787L47.7333 13.5606V13.5806H48.8397V14H47.0583ZM49.2791 14V11.8312H49.7903V14H49.2791ZM49.2431 11.244C49.2431 11.0923 49.3769 10.9684 49.5387 10.9684C49.7004 10.9684 49.8342 11.0923 49.8342 11.244C49.8342 11.3978 49.7004 11.5216 49.5387 11.5236C49.3769 11.5216 49.2431 11.3978 49.2431 11.244ZM50.2776 14V11.8312H50.7649V12.1986H50.7928C50.8827 11.951 51.1004 11.8032 51.388 11.8032C51.6815 11.8032 51.8932 11.953 51.9751 12.1986H51.9991C52.0929 11.959 52.3346 11.8032 52.6501 11.8032C53.0475 11.8032 53.3271 12.0588 53.3251 12.5421V14H52.8179V12.622C52.8179 12.3524 52.6541 12.2306 52.4464 12.2306C52.1968 12.2306 52.051 12.4003 52.051 12.646V14H51.5557V12.6021C51.5537 12.3764 51.4059 12.2306 51.1883 12.2306C50.9686 12.2306 50.7888 12.4123 50.7888 12.6819V14H50.2776ZM55.0426 12.4503C55.0106 12.2865 54.8748 12.1807 54.6592 12.1827C54.4415 12.1807 54.2817 12.2905 54.2837 12.4383C54.2817 12.5501 54.3716 12.634 54.5913 12.6859L54.9587 12.7618C55.3681 12.8517 55.5678 13.0414 55.5698 13.3529C55.5678 13.7604 55.2104 14.0439 54.6432 14.0439C54.092 14.0439 53.7665 13.7963 53.7125 13.3809H54.2318C54.2617 13.5666 54.4055 13.6585 54.6432 13.6565C54.8888 13.6585 55.0486 13.5586 55.0506 13.3969C55.0486 13.2711 54.9507 13.1912 54.735 13.1453L54.3876 13.0694C53.9842 12.9875 53.7745 12.7758 53.7765 12.4662C53.7745 12.0648 54.1219 11.8032 54.6512 11.8032C55.1684 11.8032 55.4879 12.0569 55.5259 12.4503H55.0426ZM57.1875 12.4503C57.1555 12.2865 57.0197 12.1807 56.804 12.1827C56.5863 12.1807 56.4266 12.2905 56.4286 12.4383C56.4266 12.5501 56.5164 12.634 56.7361 12.6859L57.1036 12.7618C57.513 12.8517 57.7127 13.0414 57.7147 13.3529C57.7127 13.7604 57.3552 14.0439 56.788 14.0439C56.2368 14.0439 55.9113 13.7963 55.8574 13.3809H56.3766C56.4066 13.5666 56.5504 13.6585 56.788 13.6565C57.0337 13.6585 57.1934 13.5586 57.1954 13.3969C57.1934 13.2711 57.0956 13.1912 56.8799 13.1453L56.5324 13.0694C56.129 12.9875 55.9193 12.7758 55.9213 12.4662C55.9193 12.0648 56.2668 11.8032 56.796 11.8032C57.3133 11.8032 57.6328 12.0569 57.6707 12.4503H57.1875ZM58.0023 13.3889C58.0023 12.9016 58.4077 12.7598 58.8091 12.7339C58.9608 12.7219 59.2704 12.7079 59.3663 12.7039L59.3643 12.5302C59.3643 12.3145 59.2265 12.1907 58.9728 12.1907C58.7452 12.1907 58.6054 12.2945 58.5654 12.4503H58.0742C58.1101 12.0808 58.4416 11.8032 58.9848 11.8032C59.3962 11.8032 59.8715 11.973 59.8715 12.5501V14H59.3842V13.7004H59.3683C59.2724 13.8842 59.0707 14.0439 58.7292 14.0439C58.3158 14.0439 58.0023 13.8183 58.0023 13.3889ZM58.4935 13.3849C58.4935 13.5726 58.6473 13.6685 58.861 13.6685C59.1705 13.6685 59.3683 13.4648 59.3683 13.2211L59.3663 13.0434C59.2744 13.0474 58.9908 13.0654 58.889 13.0734C58.6473 13.0933 58.4935 13.1952 58.4935 13.3849ZM61.6649 12.5861V13.0055H60.3628V12.5861H61.6649ZM62.1642 14V11.8312H62.6594V12.1907H62.6834C62.7613 11.941 62.969 11.7992 63.2186 11.7992C63.2745 11.7992 63.3544 11.8052 63.4023 11.8112V12.2825C63.3564 12.2665 63.2506 12.2526 63.1667 12.2506C62.8831 12.2526 62.6754 12.4483 62.6754 12.7219V14H62.1642ZM64.5966 14.0439C63.9435 14.0439 63.5421 13.6086 63.5421 12.9296C63.5421 12.2586 63.9495 11.8032 64.5686 11.8032C65.0998 11.8032 65.5592 12.1367 65.5592 12.8976V13.0574H64.0454C64.0534 13.4268 64.2711 13.6465 64.6006 13.6445C64.8242 13.6465 64.974 13.5507 65.0399 13.4208H65.5392C65.4473 13.7963 65.0998 14.0439 64.5966 14.0439ZM64.0474 12.7099H65.0719C65.0699 12.4143 64.8702 12.1986 64.5766 12.1986C64.2711 12.1986 64.0654 12.4343 64.0474 12.7099ZM66.4658 12.7299V14H65.9546V11.8312H66.4419V12.1986H66.4698C66.5677 11.957 66.7894 11.8032 67.1129 11.8032C67.5622 11.8032 67.8578 12.0988 67.8558 12.618V14H67.3485V12.6979C67.3485 12.4063 67.1908 12.2326 66.9252 12.2346C66.6556 12.2326 66.4658 12.4143 66.4658 12.7299ZM69.3057 14.0439C68.6526 14.0439 68.2512 13.6086 68.2512 12.9296C68.2512 12.2586 68.6586 11.8032 69.2777 11.8032C69.8089 11.8032 70.2683 12.1367 70.2683 12.8976V13.0574H68.7545C68.7625 13.4268 68.9802 13.6465 69.3097 13.6445C69.5333 13.6465 69.6831 13.5507 69.749 13.4208H70.2483C70.1564 13.7963 69.8089 14.0439 69.3057 14.0439ZM68.7565 12.7099H69.781C69.779 12.4143 69.5793 12.1986 69.2857 12.1986C68.9802 12.1986 68.7745 12.4343 68.7565 12.7099ZM71.103 14L70.4879 11.8312H71.0072L71.3906 13.3569H71.4106L71.798 11.8312H72.3133L72.7047 13.349H72.7247L73.1041 11.8312H73.6233L73.0082 14H72.477L72.0696 12.5302H72.0417L71.6343 14H71.103ZM73.847 13.3889C73.847 12.9016 74.2524 12.7598 74.6538 12.7339C74.8056 12.7219 75.1152 12.7079 75.211 12.7039L75.209 12.5302C75.209 12.3145 75.0712 12.1907 74.8176 12.1907C74.5899 12.1907 74.4501 12.2945 74.4102 12.4503H73.9189C73.9549 12.0808 74.2864 11.8032 74.8296 11.8032C75.241 11.8032 75.7163 11.973 75.7163 12.5501V14H75.229V13.7004H75.213C75.1172 13.8842 74.9154 14.0439 74.5739 14.0439C74.1606 14.0439 73.847 13.8183 73.847 13.3889ZM74.3383 13.3849C74.3383 13.5726 74.4921 13.6685 74.7058 13.6685C75.0153 13.6685 75.213 13.4648 75.213 13.2211L75.211 13.0434C75.1191 13.0474 74.8356 13.0654 74.7337 13.0734C74.4921 13.0933 74.3383 13.1952 74.3383 13.3849ZM76.7068 11.1082V14H76.1956V11.1082H76.7068ZM77.5096 14.032C77.3379 14.032 77.1961 13.8922 77.1981 13.7204C77.1961 13.5527 77.3379 13.4149 77.5096 13.4129C77.6754 13.4149 77.8172 13.5527 77.8172 13.7204C77.8172 13.8922 77.6754 14.032 77.5096 14.032ZM79.2551 14.0439C78.608 14.0439 78.2166 13.5806 78.2166 12.9256C78.2166 12.2606 78.62 11.8032 79.2551 11.8032C79.7803 11.8032 80.1498 12.1108 80.1857 12.5781H79.6984C79.6585 12.3704 79.5067 12.2126 79.2591 12.2106C78.9435 12.2126 78.7318 12.4762 78.7318 12.9136C78.7318 13.3609 78.9395 13.6265 79.2591 13.6285C79.4847 13.6265 79.6525 13.4947 79.6984 13.2611H80.1857C80.1478 13.7184 79.8003 14.0439 79.2551 14.0439ZM81.5158 14.0439C80.8827 14.0439 80.4773 13.5946 80.4773 12.9256C80.4773 12.2506 80.8827 11.8032 81.5158 11.8032C82.1508 11.8032 82.5562 12.2506 82.5542 12.9256C82.5562 13.5946 82.1508 14.0439 81.5158 14.0439ZM80.9925 12.9216C80.9925 13.319 81.1663 13.6365 81.5198 13.6365C81.8672 13.6365 82.041 13.319 82.039 12.9216C82.041 12.5242 81.8672 12.2046 81.5198 12.2066C81.1663 12.2046 80.9925 12.5242 80.9925 12.9216ZM82.9497 14V11.8312H83.4369V12.1986H83.4649C83.5548 11.951 83.7725 11.8032 84.06 11.8032C84.3536 11.8032 84.5653 11.953 84.6472 12.1986H84.6711C84.765 11.959 85.0066 11.8032 85.3222 11.8032C85.7196 11.8032 85.9992 12.0588 85.9972 12.5421V14H85.4899V12.622C85.4899 12.3524 85.3262 12.2306 85.1185 12.2306C84.8688 12.2306 84.7231 12.4003 84.7231 12.646V14H84.2278V12.6021C84.2258 12.3764 84.078 12.2306 83.8603 12.2306C83.6406 12.2306 83.4609 12.4123 83.4609 12.6819V14H82.9497ZM87.6627 10.9724L86.7321 14.4354H86.2848L87.2194 10.9724H87.6627Z" fill="black"/>
</svg>
