<svg width="768" height="1200" viewBox="0 0 768 1200" fill="none" xmlns="http://www.w3.org/2000/svg">
<rect width="768" height="1200" fill="#518284"/>
<path d="M201 639L175.3 573.7H175C175.133 574.9 175.2 576.267 175.2 577.8C175.267 579.267 175.3 580.833 175.3 582.5C175.367 584.1 175.4 585.767 175.4 587.5V639H170V567.6H178.7L203.3 630.2H203.7L228.6 567.6H237.1V639H231.4V586.9C231.4 585.433 231.4 583.933 231.4 582.4C231.467 580.867 231.533 579.367 231.6 577.9C231.667 576.433 231.733 575.067 231.8 573.8H231.5L205.7 639H201ZM317.707 603.2C317.707 608.667 317.007 613.633 315.607 618.1C314.274 622.567 312.274 626.467 309.607 629.8C306.94 633.067 303.574 635.6 299.507 637.4C295.507 639.133 290.84 640 285.507 640C280.107 640 275.407 639.1 271.407 637.3C267.407 635.5 264.074 632.967 261.407 629.7C258.74 626.433 256.74 622.567 255.407 618.1C254.074 613.567 253.407 608.567 253.407 603.1C253.407 595.833 254.607 589.467 257.007 584C259.474 578.533 263.107 574.267 267.907 571.2C272.774 568.067 278.774 566.5 285.907 566.5C292.774 566.5 298.54 568 303.207 571C307.94 573.933 311.54 578.133 314.007 583.6C316.474 589.067 317.707 595.6 317.707 603.2ZM259.507 603.1C259.507 609.5 260.44 615.067 262.307 619.8C264.174 624.533 267.04 628.233 270.907 630.9C274.774 633.567 279.674 634.9 285.607 634.9C291.607 634.9 296.507 633.6 300.307 631C304.174 628.333 307.007 624.633 308.807 619.9C310.674 615.167 311.607 609.6 311.607 603.2C311.607 593.267 309.44 585.533 305.107 580C300.84 574.467 294.44 571.7 285.907 571.7C279.907 571.7 274.94 573 271.007 575.6C267.14 578.2 264.24 581.867 262.307 586.6C260.44 591.333 259.507 596.833 259.507 603.1ZM386.667 639H380.567L339.167 576.6H338.867C338.867 577.933 338.901 579.3 338.967 580.7C339.034 582.033 339.067 583.433 339.067 584.9C339.134 586.367 339.167 587.867 339.167 589.4C339.234 590.867 339.267 592.367 339.267 593.9V639H333.867V567.6H340.067L381.267 629.8H381.567C381.567 628.8 381.534 627.633 381.467 626.3C381.401 624.9 381.334 623.433 381.267 621.9C381.267 620.367 381.234 618.833 381.167 617.3C381.167 615.767 381.167 614.3 381.167 612.9V567.6H386.667V639ZM435.419 602.7H461.319V635.8C457.785 637.2 454.085 638.267 450.219 639C446.352 639.667 442.185 640 437.719 640C430.185 640 423.819 638.567 418.619 635.7C413.485 632.767 409.585 628.567 406.919 623.1C404.252 617.633 402.919 611.067 402.919 603.4C402.919 596.133 404.385 589.767 407.319 584.3C410.252 578.767 414.419 574.433 419.819 571.3C425.285 568.1 431.819 566.5 439.419 566.5C443.352 566.5 447.052 566.867 450.519 567.6C454.052 568.267 457.352 569.333 460.419 570.8L458.219 575.9C455.219 574.5 452.119 573.467 448.919 572.8C445.719 572.067 442.452 571.7 439.119 571.7C432.852 571.7 427.452 573.033 422.919 575.7C418.385 578.367 414.919 582.067 412.519 586.8C410.119 591.533 408.919 597.067 408.919 603.4C408.919 610.267 410.052 616.033 412.319 620.7C414.585 625.367 417.919 628.9 422.319 631.3C426.785 633.7 432.285 634.9 438.819 634.9C441.219 634.9 443.385 634.8 445.319 634.6C447.319 634.333 449.152 634 450.819 633.6C452.552 633.2 454.152 632.767 455.619 632.3V607.9H435.419V602.7ZM548.659 639H498.759V634.7L540.259 572.8H500.759V567.6H547.559V571.9L506.059 633.8H548.659V639ZM601.778 639H562.578V567.6H601.778V572.8H568.378V599H599.878V604.1H568.378V633.8H601.778V639Z" fill="white"/>
</svg>
