<svg width="192" height="164" viewBox="0 0 192 164" fill="none" xmlns="http://www.w3.org/2000/svg">
<path d="M0 6C0 2.6863 2.68629 0 6 0H185.344C188.657 0 191.344 2.68629 191.344 6V158C191.344 161.314 188.657 164 185.344 164H6C2.68629 164 0 161.314 0 158V6Z" fill="white"/>
<rect x="30.0625" y="7" width="152.344" height="10.8906" rx="5.44531" fill="#ECECEC"/>
<rect x="7" y="10" width="5" height="5" rx="2.5" fill="#212125"/>
<rect x="14" y="10" width="5" height="5" rx="2.5" fill="#A3DE83"/>
<rect x="21" y="10" width="5" height="5" rx="2.5" fill="#F7F39A"/>
<path d="M35.7549 12.7299V14H35.2436V11.1082H35.7429V12.1986H35.7709C35.8687 11.953 36.0804 11.8032 36.4139 11.8032C36.8633 11.8032 37.1608 12.0948 37.1608 12.618V14H36.6536V12.6979C36.6516 12.4023 36.4938 12.2326 36.2262 12.2346C35.9506 12.2326 35.7549 12.4143 35.7549 12.7299ZM38.7265 11.8312V12.2226H38.2992V13.349C38.2992 13.5567 38.403 13.5986 38.5308 13.6006C38.5907 13.6026 38.6906 13.5966 38.7545 13.5926V14.008C38.6946 14.018 38.5967 14.03 38.4669 14.028C38.0835 14.03 37.7879 13.8402 37.7919 13.4328V12.2226H37.4804V11.8312H37.7919V11.3119H38.2992V11.8312H38.7265ZM40.2004 11.8312V12.2226H39.773V13.349C39.773 13.5567 39.8768 13.5986 40.0047 13.6006C40.0646 13.6026 40.1644 13.5966 40.2283 13.5926V14.008C40.1684 14.018 40.0706 14.03 39.9408 14.028C39.5573 14.03 39.2617 13.8402 39.2657 13.4328V12.2226H38.9542V11.8312H39.2657V11.3119H39.773V11.8312H40.2004ZM40.5918 14.8148V11.8312H41.0911V12.1867H41.123C41.2009 12.0329 41.3607 11.8032 41.7461 11.8032C42.2454 11.8032 42.6388 12.1946 42.6408 12.9176C42.6388 13.6305 42.2574 14.0379 41.7461 14.0399C41.3727 14.0379 41.2029 13.8163 41.123 13.6565H41.103V14.8148H40.5918ZM41.0911 12.9136C41.0931 13.337 41.2768 13.6206 41.6063 13.6206C41.9438 13.6206 42.1216 13.323 42.1216 12.9136C42.1216 12.5102 41.9478 12.2206 41.6063 12.2186C41.2728 12.2206 41.0931 12.4922 41.0911 12.9136ZM43.3557 14.032C43.184 14.032 43.0422 13.8922 43.0442 13.7204C43.0422 13.5527 43.184 13.4149 43.3557 13.4129C43.5215 13.4149 43.6633 13.5527 43.6633 13.7204C43.6633 13.8922 43.5215 14.032 43.3557 14.032ZM43.0442 12.1707C43.0422 12.0029 43.184 11.8651 43.3557 11.8631C43.5215 11.8651 43.6633 12.0029 43.6633 12.1707C43.6633 12.3424 43.5215 12.4822 43.3557 12.4822C43.184 12.4822 43.0422 12.3424 43.0442 12.1707ZM45.3328 10.9724L44.4022 14.4354H43.9549L44.8895 10.9724H45.3328ZM46.7987 10.9724L45.8681 14.4354H45.4207L46.3553 10.9724H46.7987ZM48.0329 14.0439C47.3858 14.0439 46.9944 13.5806 46.9944 12.9256C46.9944 12.2606 47.3978 11.8032 48.0329 11.8032C48.5581 11.8032 48.9276 12.1108 48.9635 12.5781H48.4762C48.4363 12.3704 48.2845 12.2126 48.0369 12.2106C47.7213 12.2126 47.5096 12.4762 47.5096 12.9136C47.5096 13.3609 47.7173 13.6265 48.0369 13.6285C48.2625 13.6265 48.4303 13.4947 48.4762 13.2611H48.9635C48.9256 13.7184 48.5781 14.0439 48.0329 14.0439ZM50.7329 13.0893V11.8312H51.2402V14H50.7489V13.6166H50.7249C50.6251 13.8582 50.3974 14.028 50.0739 14.028C49.6445 14.028 49.349 13.7324 49.347 13.2132V11.8312H49.8582V13.1333C49.8582 13.4089 50.022 13.5846 50.2696 13.5846C50.4933 13.5846 50.7329 13.4208 50.7329 13.0893ZM52.8099 11.8312V12.2226H52.3825V13.349C52.3825 13.5567 52.4863 13.5986 52.6142 13.6006C52.6741 13.6026 52.7739 13.5966 52.8378 13.5926V14.008C52.7779 14.018 52.6801 14.03 52.5503 14.028C52.1668 14.03 51.8713 13.8402 51.8752 13.4328V12.2226H51.5637V11.8312H51.8752V11.3119H52.3825V11.8312H52.8099ZM54.1399 14.0439C53.4869 14.0439 53.0855 13.6086 53.0855 12.9296C53.0855 12.2586 53.4929 11.8032 54.112 11.8032C54.6432 11.8032 55.1025 12.1367 55.1025 12.8976V13.0574H53.5887C53.5967 13.4268 53.8144 13.6465 54.1439 13.6445C54.3676 13.6465 54.5174 13.5507 54.5833 13.4208H55.0825C54.9907 13.7963 54.6432 14.0439 54.1399 14.0439ZM53.5907 12.7099H54.6152C54.6132 12.4143 54.4135 12.1986 54.12 12.1986C53.8144 12.1986 53.6087 12.4343 53.5907 12.7099ZM56.5604 14.0399C55.8634 14.0399 55.448 13.5007 55.45 12.5541C55.448 11.6115 55.8674 11.0683 56.5604 11.0683C57.2534 11.0683 57.6707 11.6115 57.6707 12.5541C57.6707 13.5027 57.2554 14.0399 56.5604 14.0399ZM55.9732 12.5541C55.9732 13.2491 56.1969 13.6026 56.5604 13.6046C56.9218 13.6026 57.1475 13.2491 57.1475 12.5541C57.1455 11.8651 56.9218 11.5017 56.5604 11.4997C56.1989 11.5017 55.9752 11.8651 55.9732 12.5541ZM59.2804 11.1082V14H58.7571V11.6155H58.7412L58.0662 12.0469V11.5716L58.7811 11.1082H59.2804ZM59.9834 14V13.6246L61.0059 12.638C61.2974 12.3464 61.4492 12.1747 61.4492 11.931C61.4492 11.6614 61.2355 11.4917 60.9539 11.4917C60.6564 11.4917 60.4646 11.6774 60.4666 11.971H59.9714C59.9694 11.4238 60.3808 11.0683 60.9579 11.0683C61.5491 11.0683 61.9465 11.4218 61.9485 11.9071C61.9465 12.2326 61.7907 12.4962 61.2215 13.0334L60.7063 13.5447V13.5646H61.9924V14H59.9834ZM63.4982 14.0399C62.8811 14.0399 62.4397 13.7044 62.4278 13.2171H62.951C62.965 13.4488 63.1966 13.6026 63.4982 13.6006C63.8157 13.6026 64.0454 13.4268 64.0454 13.1692C64.0454 12.9096 63.8217 12.7239 63.4463 12.7219H63.1867V12.3225H63.4463C63.7538 12.3225 63.9675 12.1507 63.9655 11.8991C63.9675 11.6554 63.7838 11.4917 63.5022 11.4917C63.2306 11.4917 62.9969 11.6435 62.9869 11.8871H62.4877C62.4997 11.4018 62.941 11.0683 63.5062 11.0683C64.0933 11.0683 64.4728 11.4278 64.4688 11.8711C64.4728 12.1946 64.2571 12.4283 63.9415 12.4942V12.5182C64.3489 12.5721 64.5806 12.8337 64.5766 13.1972C64.5806 13.6865 64.1233 14.0399 63.4982 14.0399ZM66.0584 14.0399C65.4813 14.0399 65.0559 13.6944 65.0399 13.2171H65.5472C65.5632 13.4508 65.7848 13.6186 66.0584 13.6206C66.382 13.6186 66.6156 13.3849 66.6136 13.0654C66.6156 12.7339 66.376 12.5002 66.0425 12.4982C65.8168 12.4962 65.653 12.5761 65.5632 12.7458H65.0799L65.2556 11.1082H66.9651V11.5436H65.683L65.5951 12.3105H65.6231C65.7349 12.1847 65.9446 12.0928 66.1823 12.0908C66.7195 12.0928 67.1189 12.4922 67.1169 13.0494C67.1189 13.6265 66.6835 14.0399 66.0584 14.0399ZM67.7799 14.032C67.6082 14.032 67.4664 13.8922 67.4684 13.7204C67.4664 13.5527 67.6082 13.4149 67.7799 13.4129C67.9457 13.4149 68.0875 13.5527 68.0875 13.7204C68.0875 13.8922 67.9457 14.032 67.7799 14.032ZM69.3856 14.0399C68.8763 14.0379 68.4909 13.6305 68.4909 12.9176C68.4909 12.1946 68.8863 11.8032 69.3896 11.8032C69.771 11.8032 69.9308 12.0329 70.0086 12.1867H70.0286V11.1082H70.5359V14H70.0366V13.6565H70.0086C69.9268 13.8163 69.761 14.0379 69.3856 14.0399ZM69.0101 12.9136C69.0101 13.323 69.1898 13.6206 69.5254 13.6206C69.8549 13.6206 70.0406 13.337 70.0406 12.9136C70.0406 12.4922 69.8569 12.2206 69.5254 12.2186C69.1859 12.2206 69.0101 12.5102 69.0101 12.9136ZM71.9977 14.0439C71.3647 14.0439 70.9592 13.5946 70.9592 12.9256C70.9592 12.2506 71.3647 11.8032 71.9977 11.8032C72.6328 11.8032 73.0382 12.2506 73.0362 12.9256C73.0382 13.5946 72.6328 14.0439 71.9977 14.0439ZM71.4745 12.9216C71.4745 13.319 71.6482 13.6365 72.0017 13.6365C72.3492 13.6365 72.523 13.319 72.521 12.9216C72.523 12.5242 72.3492 12.2046 72.0017 12.2066C71.6482 12.2046 71.4745 12.5242 71.4745 12.9216ZM74.514 11.8312V12.2226H74.0867V13.349C74.0867 13.5567 74.1905 13.5986 74.3183 13.6006C74.3782 13.6026 74.4781 13.5966 74.542 13.5926V14.008C74.4821 14.018 74.3842 14.03 74.2544 14.028C73.871 14.03 73.5754 13.8402 73.5794 13.4328V12.2226H73.2679V11.8312H73.5794V11.3119H74.0867V11.8312H74.514ZM75.4646 12.7299V14H74.9534V11.1082H75.4527V12.1986H75.4806C75.5785 11.953 75.7902 11.8032 76.1237 11.8032C76.573 11.8032 76.8706 12.0948 76.8706 12.618V14H76.3633V12.6979C76.3613 12.4023 76.2036 12.2326 75.9359 12.2346C75.6604 12.2326 75.4646 12.4143 75.4646 12.7299ZM78.3005 14.0439C77.6674 14.0439 77.262 13.5946 77.262 12.9256C77.262 12.2506 77.6674 11.8032 78.3005 11.8032C78.9355 11.8032 79.341 12.2506 79.339 12.9256C79.341 13.5946 78.9355 14.0439 78.3005 14.0439ZM77.7772 12.9216C77.7772 13.319 77.951 13.6365 78.3045 13.6365C78.652 13.6365 78.8257 13.319 78.8237 12.9216C78.8257 12.5242 78.652 12.2046 78.3045 12.2066C77.951 12.2046 77.7772 12.5242 77.7772 12.9216ZM79.7344 14V11.8312H80.2217V12.1986H80.2496C80.3395 11.951 80.5572 11.8032 80.8447 11.8032C81.1383 11.8032 81.35 11.953 81.4319 12.1986H81.4559C81.5497 11.959 81.7914 11.8032 82.1069 11.8032C82.5043 11.8032 82.7839 12.0588 82.7819 12.5421V14H82.2747V12.622C82.2747 12.3524 82.1109 12.2306 81.9032 12.2306C81.6536 12.2306 81.5078 12.4003 81.5078 12.646V14H81.0125V12.6021C81.0105 12.3764 80.8627 12.2306 80.645 12.2306C80.4254 12.2306 80.2456 12.4123 80.2456 12.6819V14H79.7344ZM84.2318 14.0439C83.5787 14.0439 83.1773 13.6086 83.1773 12.9296C83.1773 12.2586 83.5847 11.8032 84.2038 11.8032C84.735 11.8032 85.1944 12.1367 85.1944 12.8976V13.0574H83.6806C83.6886 13.4268 83.9063 13.6465 84.2358 13.6445C84.4594 13.6465 84.6092 13.5507 84.6751 13.4208H85.1744C85.0825 13.7963 84.735 14.0439 84.2318 14.0439ZM83.6826 12.7099H84.7071C84.7051 12.4143 84.5054 12.1986 84.2118 12.1986C83.9063 12.1986 83.7006 12.4343 83.6826 12.7099ZM85.9053 14.032C85.7336 14.032 85.5918 13.8922 85.5938 13.7204C85.5918 13.5527 85.7336 13.4149 85.9053 13.4129C86.0711 13.4149 86.2129 13.5527 86.2129 13.7204C86.2129 13.8922 86.0711 14.032 85.9053 14.032ZM87.6508 14.0439C87.0037 14.0439 86.6123 13.5806 86.6123 12.9256C86.6123 12.2606 87.0157 11.8032 87.6508 11.8032C88.176 11.8032 88.5455 12.1108 88.5814 12.5781H88.0941C88.0542 12.3704 87.9024 12.2126 87.6548 12.2106C87.3392 12.2126 87.1275 12.4762 87.1275 12.9136C87.1275 13.3609 87.3352 13.6265 87.6548 13.6285C87.8804 13.6265 88.0482 13.4947 88.0941 13.2611H88.5814C88.5435 13.7184 88.196 14.0439 87.6508 14.0439ZM89.9114 14.0439C89.2784 14.0439 88.873 13.5946 88.873 12.9256C88.873 12.2506 89.2784 11.8032 89.9114 11.8032C90.5465 11.8032 90.9519 12.2506 90.9499 12.9256C90.9519 13.5946 90.5465 14.0439 89.9114 14.0439ZM89.3882 12.9216C89.3882 13.319 89.562 13.6365 89.9154 13.6365C90.2629 13.6365 90.4367 13.319 90.4347 12.9216C90.4367 12.5242 90.2629 12.2046 89.9154 12.2066C89.562 12.2046 89.3882 12.5242 89.3882 12.9216ZM91.6609 14.032C91.4891 14.032 91.3473 13.8922 91.3493 13.7204C91.3473 13.5527 91.4891 13.4149 91.6609 13.4129C91.8266 13.4149 91.9684 13.5527 91.9684 13.7204C91.9684 13.8922 91.8266 14.032 91.6609 14.032ZM92.4597 14V11.1082H92.971V12.7019H93.0069L93.7858 11.8312H94.3809L93.5401 12.7658L94.4328 14H93.8257L93.1587 13.0694L92.971 13.2691V14H92.4597ZM94.6844 14V11.8312H95.1797V12.1907H95.2037C95.2816 11.941 95.4893 11.7992 95.7389 11.7992C95.7948 11.7992 95.8747 11.8052 95.9226 11.8112V12.2825C95.8767 12.2665 95.7709 12.2526 95.687 12.2506C95.4034 12.2526 95.1957 12.4483 95.1957 12.7219V14H94.6844ZM97.2766 10.9724L96.346 14.4354H95.8987L96.8333 10.9724H97.2766ZM98.7944 12.4503C98.7625 12.2865 98.6267 12.1807 98.411 12.1827C98.1933 12.1807 98.0335 12.2905 98.0355 12.4383C98.0335 12.5501 98.1234 12.634 98.3431 12.6859L98.7105 12.7618C99.1199 12.8517 99.3196 13.0414 99.3216 13.3529C99.3196 13.7604 98.9622 14.0439 98.395 14.0439C97.8438 14.0439 97.5183 13.7963 97.4644 13.3809H97.9836C98.0136 13.5666 98.1574 13.6585 98.395 13.6565C98.6406 13.6585 98.8004 13.5586 98.8024 13.3969C98.8004 13.2711 98.7026 13.1912 98.4869 13.1453L98.1394 13.0694C97.736 12.9875 97.5263 12.7758 97.5283 12.4662C97.5263 12.0648 97.8738 11.8032 98.403 11.8032C98.9202 11.8032 99.2398 12.0569 99.2777 12.4503H98.7944ZM99.7091 14V11.8312H100.22V14H99.7091ZM99.6731 11.244C99.6731 11.0923 99.8069 10.9684 99.9687 10.9684C100.13 10.9684 100.264 11.0923 100.264 11.244C100.264 11.3978 100.13 11.5216 99.9687 11.5236C99.8069 11.5216 99.6731 11.3978 99.6731 11.244ZM101.79 11.8312V12.2226H101.363V13.349C101.363 13.5567 101.466 13.5986 101.594 13.6006C101.654 13.6026 101.754 13.5966 101.818 13.5926V14.008C101.758 14.018 101.66 14.03 101.53 14.028C101.147 14.03 100.851 13.8402 100.855 13.4328V12.2226H100.544V11.8312H100.855V11.3119H101.363V11.8312H101.79ZM103.12 14.0439C102.467 14.0439 102.066 13.6086 102.066 12.9296C102.066 12.2586 102.473 11.8032 103.092 11.8032C103.623 11.8032 104.083 12.1367 104.083 12.8976V13.0574H102.569C102.577 13.4268 102.795 13.6465 103.124 13.6445C103.348 13.6465 103.498 13.5507 103.563 13.4208H104.063C103.971 13.7963 103.623 14.0439 103.12 14.0439ZM102.571 12.7099H103.595C103.593 12.4143 103.394 12.1986 103.1 12.1986C102.795 12.1986 102.589 12.4343 102.571 12.7099ZM105.525 14.0399C104.907 14.0399 104.466 13.7044 104.454 13.2171H104.977C104.991 13.4488 105.223 13.6026 105.525 13.6006C105.842 13.6026 106.072 13.4268 106.072 13.1692C106.072 12.9096 105.848 12.7239 105.473 12.7219H105.213V12.3225H105.473C105.78 12.3225 105.994 12.1507 105.992 11.8991C105.994 11.6554 105.81 11.4917 105.529 11.4917C105.257 11.4917 105.023 11.6435 105.013 11.8871H104.514C104.526 11.4018 104.967 11.0683 105.533 11.0683C106.12 11.0683 106.499 11.4278 106.495 11.8711C106.499 12.1946 106.283 12.4283 105.968 12.4942V12.5182C106.375 12.5721 106.607 12.8337 106.603 13.1972C106.607 13.6865 106.15 14.0399 105.525 14.0399ZM108.241 10.9724L107.31 14.4354H106.863L107.797 10.9724H108.241ZM108.528 14V11.8312H109.039V14H108.528ZM108.492 11.244C108.492 11.0923 108.626 10.9684 108.788 10.9684C108.95 10.9684 109.083 11.0923 109.083 11.244C109.083 11.3978 108.95 11.5216 108.788 11.5236C108.626 11.5216 108.492 11.3978 108.492 11.244ZM110.038 12.7299V14H109.527V11.8312H110.014V12.1986H110.042C110.14 11.957 110.361 11.8032 110.685 11.8032C111.134 11.8032 111.43 12.0988 111.428 12.618V14H110.921V12.6979C110.921 12.4063 110.763 12.2326 110.497 12.2346C110.228 12.2326 110.038 12.4143 110.038 12.7299ZM112.722 14.0399C112.213 14.0379 111.827 13.6305 111.827 12.9176C111.827 12.1946 112.223 11.8032 112.726 11.8032C113.107 11.8032 113.267 12.0329 113.345 12.1867H113.365V11.1082H113.872V14H113.373V13.6565H113.345C113.263 13.8163 113.097 14.0379 112.722 14.0399ZM112.347 12.9136C112.347 13.323 112.526 13.6206 112.862 13.6206C113.191 13.6206 113.377 13.337 113.377 12.9136C113.377 12.4922 113.193 12.2206 112.862 12.2186C112.522 12.2206 112.347 12.5102 112.347 12.9136ZM115.35 14.0439C114.697 14.0439 114.296 13.6086 114.296 12.9296C114.296 12.2586 114.703 11.8032 115.322 11.8032C115.853 11.8032 116.313 12.1367 116.313 12.8976V13.0574H114.799C114.807 13.4268 115.025 13.6465 115.354 13.6445C115.578 13.6465 115.728 13.5507 115.793 13.4208H116.293C116.201 13.7963 115.853 14.0439 115.35 14.0439ZM114.801 12.7099H115.825C115.823 12.4143 115.624 12.1986 115.33 12.1986C115.025 12.1986 114.819 12.4343 114.801 12.7099ZM117.08 11.8312L117.519 12.634L117.966 11.8312H118.506L117.85 12.9136L118.517 14H117.982L117.519 13.2171L117.068 14H116.524L117.187 12.9136L116.54 11.8312H117.08ZM119.181 14.032C119.009 14.032 118.867 13.8922 118.869 13.7204C118.867 13.5527 119.009 13.4149 119.181 13.4129C119.346 13.4149 119.488 13.5527 119.488 13.7204C119.488 13.8922 119.346 14.032 119.181 14.032ZM120.491 12.7299V14H119.979V11.1082H120.479V12.1986H120.507C120.604 11.953 120.816 11.8032 121.15 11.8032C121.599 11.8032 121.897 12.0948 121.897 12.618V14H121.389V12.6979C121.387 12.4023 121.23 12.2326 120.962 12.2346C120.686 12.2326 120.491 12.4143 120.491 12.7299ZM123.462 11.8312V12.2226H123.035V13.349C123.035 13.5567 123.139 13.5986 123.267 13.6006C123.326 13.6026 123.426 13.5966 123.49 13.5926V14.008C123.43 14.018 123.332 14.03 123.203 14.028C122.819 14.03 122.524 13.8402 122.528 13.4328V12.2226H122.216V11.8312H122.528V11.3119H123.035V11.8312H123.462ZM123.854 14V11.8312H124.341V12.1986H124.369C124.459 11.951 124.676 11.8032 124.964 11.8032C125.258 11.8032 125.469 11.953 125.551 12.1986H125.575C125.669 11.959 125.911 11.8032 126.226 11.8032C126.624 11.8032 126.903 12.0588 126.901 12.5421V14H126.394V12.622C126.394 12.3524 126.23 12.2306 126.022 12.2306C125.773 12.2306 125.627 12.4003 125.627 12.646V14H125.132V12.6021C125.13 12.3764 124.982 12.2306 124.764 12.2306C124.545 12.2306 124.365 12.4123 124.365 12.6819V14H123.854ZM127.9 11.1082V14H127.388V11.1082H127.9Z" fill="black"/>
</svg>
